REM DIRINDEX 1\2,1\3,1\4,1\5
REM DIRNAME folder01,folder02,folder03,folder04,folder05
TITLE ""
FILE "129.mp3" MP3
  TRACK 01 AUDIO
    TITLE "0:"
    INDEX 01 00:00:00
  TRACK 02 AUDIO
    TITLE "2:cjc046_3270"
    INDEX 01 00:00:09
  TRACK 03 AUDIO
    TITLE "0:"
    INDEX 01 00:01:07
  TRACK 04 AUDIO
    TITLE "3:cjc046_3271"
    INDEX 01 00:01:30
  TRACK 05 AUDIO
    TITLE "0:"
    INDEX 01 00:02:40
  TRACK 06 AUDIO
    TITLE "4:cjc046_3272"
    INDEX 01 00:02:53
  TRACK 07 AUDIO
    TITLE "0:"
    INDEX 01 00:03:53
  TRACK 08 AUDIO
    TITLE "2:cjc046_3273"
    INDEX 01 00:04:60
  TRACK 09 AUDIO
    TITLE "0:"
    INDEX 01 00:05:61
  TRACK 10 AUDIO
    TITLE "3:cjc046_3274"
    INDEX 01 00:06:06
  TRACK 11 AUDIO
    TITLE "0:"
    INDEX 01 00:07:21
  TRACK 12 AUDIO
    TITLE "4:cjc046_3275"
    INDEX 01 00:07:41
  TRACK 13 AUDIO
    TITLE "0:"
    INDEX 01 00:08:40
  TRACK 14 AUDIO
    TITLE "2:cjc046_3276"
    INDEX 01 00:09:49
  TRACK 15 AUDIO
    TITLE "0:"
    INDEX 01 00:10:49
  TRACK 16 AUDIO
    TITLE "3:cjc046_3277"
    INDEX 01 00:10:70
  TRACK 17 AUDIO
    TITLE "0:"
    INDEX 01 00:13:00
  TRACK 18 AUDIO
    TITLE "4:cjc046_3278"
    INDEX 01 00:13:16
  TRACK 19 AUDIO
    TITLE "0:"
    INDEX 01 00:14:17
  TRACK 20 AUDIO
    TITLE "2:cjc046_3279"
    INDEX 01 00:15:27
  TRACK 21 AUDIO
    TITLE "0:"
    INDEX 01 00:16:28
  TRACK 22 AUDIO
    TITLE "3:cjc046_3280"
    INDEX 01 00:16:46
  TRACK 23 AUDIO
    TITLE "0:"
    INDEX 01 00:17:49
  TRACK 24 AUDIO
    TITLE "4:cjc046_3281"
    INDEX 01 00:17:69
  TRACK 25 AUDIO
    TITLE "0:"
    INDEX 01 00:18:70
  TRACK 26 AUDIO
    TITLE "2:cjc046_3282"
    INDEX 01 00:20:02
  TRACK 27 AUDIO
    TITLE "0:"
    INDEX 01 00:21:09
  TRACK 28 AUDIO
    TITLE "3:cjc046_3283"
    INDEX 01 00:21:23
  TRACK 29 AUDIO
    TITLE "0:"
    INDEX 01 00:22:48
  TRACK 30 AUDIO
    TITLE "4:cjc046_3284"
    INDEX 01 00:22:64
  TRACK 31 AUDIO
    TITLE "0:"
    INDEX 01 00:23:69
  TRACK 32 AUDIO
    TITLE "2:cjc046_3285"
    INDEX 01 00:25:05
  TRACK 33 AUDIO
    TITLE "0:"
    INDEX 01 00:26:30
  TRACK 34 AUDIO
    TITLE "3:cjc046_3286"
    INDEX 01 00:26:50
  TRACK 35 AUDIO
    TITLE "0:"
    INDEX 01 00:27:67
  TRACK 36 AUDIO
    TITLE "4:cjc046_3287"
    INDEX 01 00:28:08
  TRACK 37 AUDIO
    TITLE "0:"
    INDEX 01 00:29:33
  TRACK 38 AUDIO
    TITLE "2:cjc046_3288"
    INDEX 01 00:30:42
  TRACK 39 AUDIO
    TITLE "0:"
    INDEX 01 00:31:57
  TRACK 40 AUDIO
    TITLE "3:cjc046_3289"
    INDEX 01 00:31:73
  TRACK 41 AUDIO
    TITLE "0:"
    INDEX 01 00:33:09
  TRACK 42 AUDIO
    TITLE "4:cjc046_3290"
    INDEX 01 00:33:28
  TRACK 43 AUDIO
    TITLE "0:"
    INDEX 01 00:34:42
  TRACK 44 AUDIO
    TITLE "2:cjc046_3291"
    INDEX 01 00:35:45
  TRACK 45 AUDIO
    TITLE "0:"
    INDEX 01 00:36:50
  TRACK 46 AUDIO
    TITLE "3:cjc046_3292"
    INDEX 01 00:36:70
  TRACK 47 AUDIO
    TITLE "0:"
    INDEX 01 00:38:51
  TRACK 48 AUDIO
    TITLE "4:cjc046_3293"
    INDEX 01 00:38:67
  TRACK 49 AUDIO
    TITLE "0:"
    INDEX 01 00:39:74
  TRACK 50 AUDIO
    TITLE "2:cjc046_3294"
    INDEX 01 00:41:06
  TRACK 51 AUDIO
    TITLE "0:"
    INDEX 01 00:42:10
  TRACK 52 AUDIO
    TITLE "3:cjc046_3295"
    INDEX 01 00:42:29
  TRACK 53 AUDIO
    TITLE "0:"
    INDEX 01 00:43:21
  TRACK 54 AUDIO
    TITLE "4:cjc046_3296"
    INDEX 01 00:43:40
  TRACK 55 AUDIO
    TITLE "0:"
    INDEX 01 00:44:44
  TRACK 56 AUDIO
    TITLE "2:cjc046_3297"
    INDEX 01 00:45:53
  TRACK 57 AUDIO
    TITLE "0:"
    INDEX 01 00:46:54
  TRACK 58 AUDIO
    TITLE "3:cjc046_3298"
    INDEX 01 00:46:72
  TRACK 59 AUDIO
    TITLE "0:"
    INDEX 01 00:47:66
  TRACK 60 AUDIO
    TITLE "4:cjc046_3299"
    INDEX 01 00:48:12
  TRACK 61 AUDIO
    TITLE "0:"
    INDEX 01 00:49:10
  TRACK 62 AUDIO
    TITLE "2:cjc046_3300"
    INDEX 01 00:50:19
  TRACK 63 AUDIO
    TITLE "0:"
    INDEX 01 00:51:24
  TRACK 64 AUDIO
    TITLE "3:cjc046_3301"
    INDEX 01 00:51:44
  TRACK 65 AUDIO
    TITLE "0:"
    INDEX 01 00:53:19
  TRACK 66 AUDIO
    TITLE "4:cjc046_3302"
    INDEX 01 00:53:37
  TRACK 67 AUDIO
    TITLE "0:"
    INDEX 01 00:54:42
  TRACK 68 AUDIO
    TITLE "2:cjc046_3303"
    INDEX 01 00:55:50
  TRACK 69 AUDIO
    TITLE "0:"
    INDEX 01 00:56:65
  TRACK 70 AUDIO
    TITLE "3:cjc046_3304"
    INDEX 01 00:57:09
  TRACK 71 AUDIO
    TITLE "0:"
    INDEX 01 00:58:36
  TRACK 72 AUDIO
    TITLE "4:cjc046_3305"
    INDEX 01 00:58:56
  TRACK 73 AUDIO
    TITLE "0:"
    INDEX 01 00:59:73
  TRACK 74 AUDIO
    TITLE "2:cjc046_3306"
    INDEX 01 01:01:07
  TRACK 75 AUDIO
    TITLE "0:"
    INDEX 01 01:02:10
  TRACK 76 AUDIO
    TITLE "3:cjc046_3307"
    INDEX 01 01:02:30
  TRACK 77 AUDIO
    TITLE "0:"
    INDEX 01 01:03:59
  TRACK 78 AUDIO
    TITLE "4:cjc046_3308"
    INDEX 01 01:04:05
  TRACK 79 AUDIO
    TITLE "0:"
    INDEX 01 01:05:07
  TRACK 80 AUDIO
    TITLE "2:cjc046_3309"
    INDEX 01 01:06:18
  TRACK 81 AUDIO
    TITLE "0:"
    INDEX 01 01:07:31
  TRACK 82 AUDIO
    TITLE "3:cjc046_3310"
    INDEX 01 01:07:47
  TRACK 83 AUDIO
    TITLE "0:"
    INDEX 01 01:08:54
  TRACK 84 AUDIO
    TITLE "4:cjc046_3311"
    INDEX 01 01:08:72
  TRACK 85 AUDIO
    TITLE "0:"
    INDEX 01 01:10:08
